<?xml version="1.0"?><svg xmlns="http://www.w3.org/2000/svg"  viewBox="0 0 50 50" width="50px" height="50px">    <path d="M37.035,5.621L31,2l4.715,5.196C39.15,11.074,41,14.744,41,19c0,5.732-3.358,8-7,8c-4.851,0-6-3.783-6-5 c0-3.914,3.548-7.157,6.758-8.288l1.59-0.559l-5.414-5.2c0,0-1.091,0.515-2.622,2.046c0.563-1.813,2.092-2.972,2.092-2.972L25.029,2 L25,2.025L24.971,2l-5.376,5.028c0,0,1.53,1.159,2.092,2.972c-1.531-1.531-2.622-2.046-2.622-2.046l-5.414,5.2l1.59,0.559 C18.452,14.843,22,18.086,22,22c0,1.217-1.149,5-6,5c-3.642,0-7-2.268-7-8c0-4.256,1.85-7.926,5.285-11.804L19,2l-6.035,3.621 C6.467,9.464,2.471,15.942,2,23.462v1.72C2,37.764,12.318,48,25,48c12.682,0,23-10.236,23-22.818v-1.72 C47.529,15.942,43.533,9.464,37.035,5.621z M46,25.182C46,36.661,36.579,46,25,46C13.421,46,4,36.661,4,25.182v-1.656 c0.29-4.428,1.935-8.474,4.678-11.722C7.536,14.157,7,16.502,7,19c0,7.381,4.848,10,9,10c6.045,0,8-4.716,8-7 c0-4.249-3.18-7.828-6.697-9.581l1.981-1.903C21,11,24,14,24,16v-4c0-2-1.125-4.262-1.577-4.878L25,4.712l2.577,2.411 C27.125,7.738,26,10,26,12v4c0-2,3-5,4.716-5.484l1.981,1.903C29.18,14.172,26,17.751,26,22c0,2.284,1.955,7,8,7 c4.152,0,9-2.619,9-10c0-2.498-0.536-4.843-1.678-7.196c2.743,3.247,4.388,7.293,4.678,11.722V25.182z"/></svg>